<svg width="1426.765015" height="227.460938" viewBox="0 0 1426.77 227.461" fill="none" xmlns="http://www.w3.org/2000/svg" xmlns:xlink="http://www.w3.org/1999/xlink">
	<desc>
			Created with Pixso.
	</desc>
	<defs/>
	<g style="mix-blend-mode:normal">
		<path id="TotoroKing" d="M928.8 211.35L955.87 214.8L983.5 3.16L956.43 0L928.8 211.35ZM119.53 33.67L214.24 36.84L214.87 10.05L1.12 2.25L0 29.67L92.74 32.83L85.21 211.64L112.57 212.48L119.53 33.67ZM1107.04 42.32L1115.68 74.53L1141.92 67.35L1133.27 35.08L1107.04 42.32ZM1304.91 201.02L1309.84 227.46L1415.52 208.75L1426.77 195.25L1421 59.62L1408.62 46.89L1328.82 39.44L1314.12 50.34L1297.46 136.47L1313.56 152.29L1397.09 134.78L1399.41 184.28L1304.91 201.02ZM985.26 126.98L1065.28 211.07L1084.61 192.37L1015.21 119.18L1088.34 61.31L1071.31 40L986.66 106.8L985.26 126.98ZM450.45 175.64L457.06 104.83L526.18 99.63L524.42 72.84L459.66 77.41L461.91 51.53L434.84 48.93L431.96 79.17L370.36 83.46L372.68 110.88L429.43 106.8L422.18 184.28L431.96 198.7L499.67 217.68L506.84 191.81L450.45 175.64ZM681.69 57.86L685.98 209.67L713.33 209.03L710.52 122.06L786.81 86.34L775.28 61.31L709.61 92.39L708.76 57.02L681.69 57.86ZM239.02 195.53L344.42 201.58L358.83 187.73L355.95 78.89L341.82 65.67L246.26 69.67L233.25 82.05L226.36 180.84L239.02 195.53ZM550.35 195.53L655.75 201.58L670.16 187.73L667.28 78.89L653.14 65.67L557.59 69.67L544.58 82.05L537.69 180.84L550.35 195.53ZM797.45 195.53L902.85 201.58L917.26 187.73L914.38 78.89L900.25 65.67L804.69 69.67L791.69 82.05L784.8 180.84L797.45 195.53ZM1327.98 121.78L1338.59 67.35L1394.21 72.84L1395.62 107.36L1327.98 121.78ZM1254.55 101.67L1259.4 199.82L1286.75 198.42L1281.34 85.21L1265.44 72.56L1179.03 86.06L1167.85 97.59L1153.43 192.37L1180.51 196.38L1193.17 111.44L1254.55 101.67ZM1099.87 205.59L1126.93 208.75L1141.07 94.42L1114 91.26L1099.87 205.59ZM331.48 173.67L254.56 169.31L259.48 96.18L329.44 93.3L331.48 173.67ZM642.81 173.67L565.89 169.31L570.81 96.18L640.77 93.3L642.81 173.67ZM889.91 173.67L812.99 169.31L817.91 96.18L887.87 93.3L889.91 173.67Z" fill="#38A5B9" fill-opacity="1.000000" fill-rule="evenodd"/>
	</g>
</svg>
