<svg xmlns="http://www.w3.org/2000/svg" version="1.1" xmlns:xlink="http://www.w3.org/1999/xlink" xmlns:svgjs="http://svgjs.dev/svgjs" width="308.7612359841165"
   height="304.915625" viewBox="0 0 2000 1999"><g transform="matrix(1,0,0,1,-0.431486880466764,-0.4312711370263287)"><svg viewBox="0 0 343 343" data-background-color="#ffffff" preserveAspectRatio="xMidYMid meet" height="1999" width="2000" xmlns="http://www.w3.org/2000/svg" xmlns:xlink="http://www.w3.org/1999/xlink"><g id="tight-bounds" transform="matrix(1,0,0,1,0.0740000000000407,0.07400000000001228)"><svg viewBox="0 0 342.85155851775386 342.85155851775386" height="342.85155851775386" width="342.85155851775386"><g><svg></svg></g><g><svg viewBox="0 0 342.85155851775386 342.85155851775386" height="342.85155851775386" width="342.85155851775386"><g><path d="M0 171.426c0-94.676 76.75-171.426 171.426-171.426 94.676 0 171.426 76.75 171.426 171.426 0 94.676-76.75 171.426-171.426 171.426-94.676 0-171.426-76.75-171.426-171.426zM171.426 337.124c91.512 0 165.698-74.185 165.698-165.698 0-91.512-74.185-165.698-165.698-165.698-91.512 0-165.698 74.185-165.698 165.698 0 91.512 74.185 165.698 165.698 165.698z" data-fill-palette-color="tertiary" fill="#6230a3" stroke="transparent"></path><ellipse rx="164.56874808852186" ry="164.56874808852186" cx="171.42577925887693" cy="171.42577925887693" fill="#6230a3" stroke="transparent" stroke-width="0" fill-opacity="1" data-fill-palette-color="tertiary"></ellipse></g><g transform="matrix(1,0,0,1,64.84655864529837,88.27973140211026)"><svg viewBox="0 0 213.1584412271571 166.29209571353334" height="166.29209571353334" width="213.1584412271571"><g><svg viewBox="0 0 213.1584412271571 166.29209571353334" height="166.29209571353334" width="213.1584412271571"><g><svg viewBox="0 0 213.1584412271571 166.29209571353334" height="166.29209571353334" width="213.1584412271571"><g transform="matrix(1,0,0,1,0,102.77518645897644)"><svg viewBox="0 0 213.1584412271571 63.516909254556914" height="63.516909254556914" width="213.1584412271571"><g id="textblocktransform"><svg viewBox="0 0 213.1584412271571 63.516909254556914" height="63.516909254556914" width="213.1584412271571" id="textblock"><g><svg viewBox="0 0 213.1584412271571 63.516909254556914" height="63.516909254556914" width="213.1584412271571"><g transform="matrix(1,0,0,1,0,0)"><svg width="213.1584412271571" viewBox="0.85 -37.5 128.69 38.35" height="63.516909254556914" data-palette-color="#ffffff"><path d="M17.8-37.4L17.8-21.25 26.75-37.25 31.15-37.25 19.95-21.2Q20.65-21.25 21.18-21.28 21.7-21.3 22.1-21.3L22.1-21.3Q24.65-21.3 26.2-20.65 27.75-20 28.63-18.88 29.5-17.75 29.78-16.23 30.05-14.7 30.05-12.95L30.05-12.95Q30.05-12.05 30-11 29.95-9.95 29.93-8.93 29.9-7.9 29.85-6.95 29.8-6 29.8-5.25L29.8-5.25Q29.8-3 30.63-1.7 31.45-0.4 32.65 0L32.65 0Q31.15 0.45 30.2 0.65 29.25 0.85 28.35 0.85L28.35 0.85Q26.1 0.85 25.03-0.6 23.95-2.05 23.95-4.3L23.95-4.3Q23.95-5.25 24.03-6.45 24.1-7.65 24.23-8.88 24.35-10.1 24.43-11.28 24.5-12.45 24.5-13.4L24.5-13.4Q24.5-15.1 24.13-16.28 23.75-17.45 23.13-18.13 22.5-18.8 21.63-19.1 20.75-19.4 19.75-19.4L19.75-19.4Q18.9-19.4 17.8-19.15L17.8-19.15 17.8 0 12.3 0 12.3-34.6Q8.85-33.6 6.83-31.28 4.8-28.95 4.8-25.45L4.8-25.45Q4.8-23.85 5.18-22.35 5.55-20.85 6.9-19.65L6.9-19.65Q5.7-19.65 4.6-19.98 3.5-20.3 2.68-21.03 1.85-21.75 1.35-22.9 0.85-24.05 0.85-25.7L0.85-25.7Q0.85-28.1 2.1-30.23 3.35-32.35 5.43-33.98 7.5-35.6 10.18-36.55 12.85-37.5 15.7-37.5L15.7-37.5Q16.25-37.5 16.78-37.48 17.3-37.45 17.8-37.4L17.8-37.4ZM48.15-25L53.15-25 53.15-8Q53.15-7.5 53.2-6.75 53.25-6 53.47-5.28 53.7-4.55 54.15-4.03 54.6-3.5 55.4-3.5L55.4-3.5Q57.85-3.5 59-8.95L59-8.95 60.85-8.95Q60.3-5.8 59.45-3.98 58.6-2.15 57.65-1.2 56.7-0.25 55.7 0.03 54.7 0.3 53.9 0.3L53.9 0.3Q52.75 0.3 51.92-0.1 51.1-0.5 50.52-1.15 49.95-1.8 49.6-2.65 49.25-3.5 49.05-4.45L49.05-4.45Q48.3-2.5 46.62-1.1 44.95 0.3 42.55 0.3L42.55 0.3Q41.05 0.3 39.52-0.3 38-0.9 36.77-2.27 35.55-3.65 34.77-5.83 34-8 34-11.15L34-11.15Q34-13.45 34.52-15.95 35.05-18.45 36.2-20.5 37.35-22.55 39.15-23.9 40.95-25.25 43.5-25.25L43.5-25.25Q44.1-25.25 44.77-25.13 45.45-25 46.07-24.7 46.7-24.4 47.25-23.88 47.8-23.35 48.15-22.6L48.15-22.6 48.15-25ZM43.8-3.5L43.8-3.5Q44.55-3.5 45.32-3.93 46.1-4.35 46.72-5.08 47.35-5.8 47.75-6.8 48.15-7.8 48.15-8.95L48.15-8.95 48.15-20.35Q47.8-21.15 47.07-21.83 46.35-22.5 45.2-22.5L45.2-22.5Q43.6-22.5 42.45-21.43 41.3-20.35 40.6-18.73 39.9-17.1 39.57-15.18 39.25-13.25 39.25-11.5L39.25-11.5Q39.25-7.2 40.42-5.35 41.6-3.5 43.8-3.5ZM59-34.3L64-35 64-8Q64-7.5 64.05-6.75 64.09-6 64.32-5.28 64.55-4.55 65-4.03 65.45-3.5 66.25-3.5L66.25-3.5Q68.7-3.5 69.84-8.95L69.84-8.95 71.7-8.95Q71.15-5.8 70.3-3.98 69.45-2.15 68.5-1.2 67.55-0.25 66.55 0.03 65.55 0.3 64.75 0.3L64.75 0.3Q63 0.3 61.9-0.38 60.8-1.05 60.15-2.1 59.5-3.15 59.25-4.45 59-5.75 59-6.95L59-6.95 59-34.3ZM69.79-34.3L74.79-35 74.79-8Q74.79-7.5 74.84-6.75 74.89-6 75.12-5.28 75.34-4.55 75.79-4.03 76.24-3.5 77.04-3.5L77.04-3.5Q79.49-3.5 80.64-8.95L80.64-8.95 82.49-8.95Q81.94-5.8 81.09-3.98 80.24-2.15 79.29-1.2 78.34-0.25 77.34 0.03 76.34 0.3 75.54 0.3L75.54 0.3Q73.79 0.3 72.69-0.38 71.59-1.05 70.94-2.1 70.29-3.15 70.04-4.45 69.79-5.75 69.79-6.95L69.79-6.95 69.79-34.3ZM80.54-34.3L85.54-35 85.54-16.85 94.14-25 98.99-25 90.64-18.25 91.14-18.25Q93.39-18.25 94.72-17.5 96.04-16.75 96.77-15.58 97.49-14.4 97.72-13.03 97.94-11.65 97.94-10.45L97.94-10.45Q97.94-9.95 97.92-9.33 97.89-8.7 97.87-8.08 97.84-7.45 97.82-6.93 97.79-6.4 97.79-6.1L97.79-6.1Q97.79-5.75 97.84-5.3 97.89-4.85 98.09-4.45 98.29-4.05 98.69-3.78 99.09-3.5 99.74-3.5L99.74-3.5Q101.04-3.5 101.97-4.8 102.89-6.1 103.49-8.95L103.49-8.95 105.34-8.95Q104.74-5.7 103.89-3.88 103.04-2.05 102.07-1.1 101.09-0.15 100.12 0.08 99.14 0.3 98.39 0.3L98.39 0.3Q96.89 0.3 95.82-0.15 94.74-0.6 94.07-1.38 93.39-2.15 93.07-3.2 92.74-4.25 92.74-5.4L92.74-5.4Q92.74-5.6 92.74-6.28 92.74-6.95 92.77-7.7 92.79-8.45 92.79-9.13 92.79-9.8 92.79-10.05L92.79-10.05Q92.79-12.65 91.84-13.55 90.89-14.45 89.64-14.45L89.64-14.45Q88.34-14.45 87.32-13.6 86.29-12.75 85.54-10.6L85.54-10.6 85.54 0 80.54 0 80.54-34.3ZM116.84-25L121.84-25 121.84-8Q121.84-7.5 121.89-6.75 121.94-6 122.16-5.28 122.39-4.55 122.84-4.03 123.29-3.5 124.09-3.5L124.09-3.5Q126.54-3.5 127.69-8.95L127.69-8.95 129.54-8.95Q128.99-5.8 128.14-3.98 127.29-2.15 126.34-1.2 125.39-0.25 124.39 0.03 123.39 0.3 122.59 0.3L122.59 0.3Q121.44 0.3 120.61-0.1 119.79-0.5 119.21-1.15 118.64-1.8 118.29-2.65 117.94-3.5 117.74-4.45L117.74-4.45Q116.99-2.5 115.31-1.1 113.64 0.3 111.24 0.3L111.24 0.3Q109.74 0.3 108.21-0.3 106.69-0.9 105.46-2.27 104.24-3.65 103.46-5.83 102.69-8 102.69-11.15L102.69-11.15Q102.69-13.45 103.21-15.95 103.74-18.45 104.89-20.5 106.04-22.55 107.84-23.9 109.64-25.25 112.19-25.25L112.19-25.25Q112.79-25.25 113.46-25.13 114.14-25 114.76-24.7 115.39-24.4 115.94-23.88 116.49-23.35 116.84-22.6L116.84-22.6 116.84-25ZM112.49-3.5L112.49-3.5Q113.24-3.5 114.01-3.93 114.79-4.35 115.41-5.08 116.04-5.8 116.44-6.8 116.84-7.8 116.84-8.95L116.84-8.95 116.84-20.35Q116.49-21.15 115.76-21.83 115.04-22.5 113.89-22.5L113.89-22.5Q112.29-22.5 111.14-21.43 109.99-20.35 109.29-18.73 108.59-17.1 108.26-15.18 107.94-13.25 107.94-11.5L107.94-11.5Q107.94-7.2 109.11-5.35 110.29-3.5 112.49-3.5Z" opacity="1" transform="matrix(1,0,0,1,0,0)" fill="#ffffff" class="undefined-text-0" data-fill-palette-color="quaternary" id="text-0"></path></svg></g></svg></g></svg></g></svg></g><g transform="matrix(1,0,0,1,62.690422966736556,0)"><svg viewBox="0 0 87.777595293684 87.78036858979766" height="87.78036858979766" width="87.777595293684"><g><svg xmlns="http://www.w3.org/2000/svg" xmlns:xlink="http://www.w3.org/1999/xlink" version="1.1" x="0" y="0" viewBox="18.351000000000017 18.348 63.30200000000001 63.304" enable-background="new 0 0 100 100" xml:space="preserve" height="87.78036858979766" width="87.777595293684" class="icon-icon-0" data-fill-palette-color="quaternary" id="icon-0"><g fill="#ffffff" data-fill-palette-color="quaternary"><path fill="#ffffff" d="M80.951 48.597c-4.329-3.261-9.009-4.911-13.907-4.911-0.107 0-0.213 0-0.32 0.002-0.104-0.002-0.212-0.002-0.318-0.002-0.431 0-0.857 0.029-1.283 0.054 0.399-0.354 0.792-0.717 1.168-1.103 3.598-3.496 5.814-8.047 6.587-13.531 0.078-0.548-0.105-1.098-0.496-1.487-0.391-0.39-0.941-0.573-1.488-0.497-5.482 0.773-10.035 2.99-13.529 6.589-0.384 0.373-0.744 0.764-1.097 1.161 0.032-0.53 0.054-1.062 0.046-1.597 0.073-5.016-1.579-9.801-4.91-14.227-0.331-0.44-0.851-0.7-1.401-0.7-0.552 0-1.072 0.26-1.404 0.7-3.33 4.425-4.981 9.211-4.909 14.227-0.008 0.535 0.014 1.066 0.045 1.597-0.352-0.396-0.713-0.788-1.097-1.161-3.493-3.599-8.045-5.816-13.529-6.589-0.549-0.076-1.098 0.107-1.487 0.497-0.39 0.391-0.574 0.941-0.498 1.487 0.774 5.484 2.99 10.036 6.588 13.531 0.375 0.386 0.769 0.748 1.168 1.103-0.427-0.024-0.854-0.054-1.284-0.054-0.107 0-0.213 0-0.319 0.002-0.106-0.002-0.212-0.002-0.321-0.002-4.898 0-9.577 1.65-13.905 4.911-0.44 0.332-0.7 0.851-0.7 1.402 0 0.553 0.259 1.071 0.7 1.403 4.329 3.26 9.008 4.91 13.908 4.91 0.106 0 0.212 0 0.318-0.002 0.106 0.002 0.223-0.006 0.318 0.002 0.432 0 0.859-0.029 1.288-0.053-0.399 0.354-0.793 0.717-1.168 1.104-3.599 3.494-5.816 8.047-6.59 13.529-0.077 0.547 0.107 1.096 0.498 1.486 0.331 0.332 0.779 0.516 1.242 0.516 0.081 0 0.163-0.006 0.246-0.018 5.484-0.773 10.036-2.99 13.529-6.588 0.384-0.373 0.745-0.766 1.097-1.162-0.031 0.531-0.053 1.062-0.045 1.598-0.073 5.016 1.579 9.801 4.909 14.227 0.332 0.441 0.853 0.701 1.404 0.701 0.551 0 1.07-0.26 1.402-0.701 3.33-4.426 4.982-9.211 4.909-14.227 0.008-0.535-0.014-1.066-0.046-1.596 0.353 0.396 0.712 0.789 1.097 1.16 3.494 3.598 8.046 5.814 13.529 6.588 0.082 0.012 0.165 0.018 0.246 0.018 0.461 0 0.91-0.184 1.242-0.516 0.391-0.391 0.574-0.939 0.496-1.486-0.772-5.484-2.99-10.037-6.588-13.529-0.375-0.387-0.77-0.75-1.169-1.104 0.428 0.023 0.855 0.053 1.286 0.053 0.107 0 0.213 0 0.317-0.002 0.106 0.002 0.213 0.002 0.318 0.002 0.001 0 0 0 0.001 0 4.899 0 9.579-1.65 13.908-4.91 0.44-0.332 0.7-0.85 0.7-1.403C81.651 49.448 81.392 48.929 80.951 48.597zM48.784 49.509l1.217-1.215 1.214 1.215-1.214 1.215L48.784 49.509zM59.828 36.215c0.013-0.014 0.026-0.027 0.039-0.04 2.41-2.489 5.449-4.198 9.058-5.099-0.901 3.607-2.61 6.646-5.099 9.057-0.014 0.012-0.027 0.027-0.04 0.04-2.411 2.489-5.449 4.198-9.057 5.099C55.63 41.665 57.339 38.624 59.828 36.215zM47.2 33.247c-0.054-3.464 0.886-6.822 2.801-10.009 1.914 3.187 2.854 6.545 2.799 10.008 0 0.02 0 0.039 0 0.058 0.056 3.463-0.885 6.82-2.799 10.008-1.915-3.188-2.854-6.544-2.801-10.009C47.2 33.285 47.2 33.266 47.2 33.247zM31.077 31.076c3.608 0.9 6.647 2.609 9.056 5.099 0.014 0.013 0.027 0.026 0.04 0.04 2.489 2.409 4.199 5.448 5.098 9.057-3.606-0.901-6.646-2.61-9.057-5.101-0.013-0.013-0.027-0.026-0.039-0.039C33.686 37.722 31.977 34.684 31.077 31.076zM33.303 52.799c-0.009 0-0.018 0-0.027 0s-0.019 0-0.029 0c-0.096 0.002-0.192 0.004-0.289 0.004-3.361 0-6.62-0.941-9.72-2.803 3.099-1.861 6.358-2.801 9.717-2.801 0.098 0 0.195 0 0.292 0.002 0.019 0.001 0.038 0.001 0.056 0 0.098-0.002 0.195-0.002 0.292-0.002 3.359 0 6.619 0.939 9.717 2.801-3.099 1.862-6.359 2.803-9.719 2.803C33.496 52.803 33.399 52.801 33.303 52.799zM40.174 63.785c-0.014 0.014-0.027 0.025-0.041 0.039-2.409 2.488-5.448 4.197-9.056 5.1 0.899-3.607 2.608-6.646 5.098-9.059 0.013-0.012 0.026-0.025 0.041-0.039 2.409-2.488 5.448-4.197 9.056-5.098C44.371 58.336 42.662 61.375 40.174 63.785zM52.8 66.752c0.056 3.465-0.885 6.822-2.799 10.01-1.915-3.188-2.854-6.545-2.801-10.01 0-0.02 0-0.037 0-0.055-0.054-3.465 0.886-6.822 2.801-10.01 1.914 3.188 2.854 6.545 2.799 10.01C52.8 66.715 52.8 66.732 52.8 66.752zM68.924 68.924c-3.607-0.902-6.646-2.611-9.058-5.098-0.013-0.014-0.025-0.027-0.038-0.041-2.489-2.41-4.198-5.449-5.099-9.057 3.607 0.9 6.646 2.609 9.056 5.098 0.014 0.014 0.026 0.027 0.04 0.039C66.314 62.277 68.022 65.314 68.924 68.924zM67.042 52.803c-0.096 0-0.192-0.002-0.289-0.004-0.01 0-0.02 0-0.029 0-0.009 0-0.018 0-0.028 0-0.096 0.002-0.192 0.004-0.289 0.004-3.361 0-6.62-0.941-9.718-2.803 3.098-1.861 6.356-2.801 9.717-2.801 0.097 0 0.194 0 0.29 0.002 0.02 0.001 0.039 0.001 0.058 0 0.097-0.002 0.194-0.002 0.291-0.002 3.36 0 6.62 0.939 9.718 2.801C73.664 51.861 70.404 52.803 67.042 52.803z" data-fill-palette-color="quaternary"></path><circle fill="#ffffff" cx="66.725" cy="50" r="2.3" data-fill-palette-color="quaternary"></circle><circle fill="#ffffff" cx="33.276" cy="50" r="2.3" data-fill-palette-color="quaternary"></circle><circle fill="#ffffff" cx="50" cy="66.725" r="2.3" data-fill-palette-color="quaternary"></circle><circle fill="#ffffff" cx="50" cy="33.275" r="2.3" data-fill-palette-color="quaternary"></circle><circle fill="#ffffff" cx="61.827" cy="61.825" r="2.3" data-fill-palette-color="quaternary"></circle><circle fill="#ffffff" cx="38.174" cy="38.174" r="2.3" data-fill-palette-color="quaternary"></circle><circle fill="#ffffff" cx="38.174" cy="61.825" r="2.3" data-fill-palette-color="quaternary"></circle><circle fill="#ffffff" cx="61.827" cy="38.174" r="2.3" data-fill-palette-color="quaternary"></circle></g></svg></g></svg></g><g></g></svg></g></svg></g></svg></g></svg></g><defs></defs></svg><rect width="342.85155851775386" height="342.85155851775386" fill="none" stroke="none" visibility="hidden"></rect></g></svg></g></svg>